<svg height="800" viewBox="0 0 1200 800" width="1200" xmlns="http://www.w3.org/2000/svg">
<g class="g-chart">
<g class="g-title" transform="translate(600,25)">
<text dy=".35em" fill="#777" font-family="sans-serif" font-size="24px" text-anchor="middle" x="0" y="0">
Vim Plugin Start Times
</text>
</g>
<g class="x-axis" transform="translate(120,90)">
<line shape-rendering="crispEdges" stroke="#bbbbbb" stroke-width="1" x1="0" x2="1070" y1="0" y2="0"/>
<g class="tick" transform="translate(1.0263789,0)">
<line shape-rendering="crispEdges" stroke="#bbbbbb" stroke-width="1px" x1="0" x2="0" y1="0" y2="-6"/>
<text dy=".35em" fill="#777" font-family="sans-serif" font-size="12px" text-anchor="middle" transform="rotate(0,0,-16)" x="0" y="-16">
0
</text>
</g>
<g class="tick" transform="translate(129.32375,0)">
<line shape-rendering="crispEdges" stroke="#bbbbbb" stroke-width="1px" x1="0" x2="0" y1="0" y2="-6"/>
<text dy=".35em" fill="#777" font-family="sans-serif" font-size="12px" text-anchor="middle" transform="rotate(0,0,-16)" x="0" y="-16">
1
</text>
</g>
<g class="tick" transform="translate(257.6211,0)">
<line shape-rendering="crispEdges" stroke="#bbbbbb" stroke-width="1px" x1="0" x2="0" y1="0" y2="-6"/>
<text dy=".35em" fill="#777" font-family="sans-serif" font-size="12px" text-anchor="middle" transform="rotate(0,0,-16)" x="0" y="-16">
2
</text>
</g>
<g class="tick" transform="translate(385.91843,0)">
<line shape-rendering="crispEdges" stroke="#bbbbbb" stroke-width="1px" x1="0" x2="0" y1="0" y2="-6"/>
<text dy=".35em" fill="#777" font-family="sans-serif" font-size="12px" text-anchor="middle" transform="rotate(0,0,-16)" x="0" y="-16">
3
</text>
</g>
<g class="tick" transform="translate(514.2158,0)">
<line shape-rendering="crispEdges" stroke="#bbbbbb" stroke-width="1px" x1="0" x2="0" y1="0" y2="-6"/>
<text dy=".35em" fill="#777" font-family="sans-serif" font-size="12px" text-anchor="middle" transform="rotate(0,0,-16)" x="0" y="-16">
4
</text>
</g>
<g class="tick" transform="translate(642.5132,0)">
<line shape-rendering="crispEdges" stroke="#bbbbbb" stroke-width="1px" x1="0" x2="0" y1="0" y2="-6"/>
<text dy=".35em" fill="#777" font-family="sans-serif" font-size="12px" text-anchor="middle" transform="rotate(0,0,-16)" x="0" y="-16">
5
</text>
</g>
<g class="tick" transform="translate(770.8105,0)">
<line shape-rendering="crispEdges" stroke="#bbbbbb" stroke-width="1px" x1="0" x2="0" y1="0" y2="-6"/>
<text dy=".35em" fill="#777" font-family="sans-serif" font-size="12px" text-anchor="middle" transform="rotate(0,0,-16)" x="0" y="-16">
6
</text>
</g>
<g class="tick" transform="translate(899.1079,0)">
<line shape-rendering="crispEdges" stroke="#bbbbbb" stroke-width="1px" x1="0" x2="0" y1="0" y2="-6"/>
<text dy=".35em" fill="#777" font-family="sans-serif" font-size="12px" text-anchor="middle" transform="rotate(0,0,-16)" x="0" y="-16">
7
</text>
</g>
<g class="tick" transform="translate(1027.4053,0)">
<line shape-rendering="crispEdges" stroke="#bbbbbb" stroke-width="1px" x1="0" x2="0" y1="0" y2="-6"/>
<text dy=".35em" fill="#777" font-family="sans-serif" font-size="12px" text-anchor="middle" transform="rotate(0,0,-16)" x="0" y="-16">
8
</text>
</g>
</g>
<g class="x-axis" transform="translate(120,750)">
<line shape-rendering="crispEdges" stroke="#bbbbbb" stroke-width="1" x1="0" x2="1070" y1="0" y2="0"/>
<g class="tick" transform="translate(1.0263789,0)">
<line shape-rendering="crispEdges" stroke="#bbbbbb" stroke-width="1px" x1="0" x2="0" y1="0" y2="6"/>
<text dy=".35em" fill="#777" font-family="sans-serif" font-size="12px" text-anchor="middle" transform="rotate(0,0,16)" x="0" y="16">
0
</text>
</g>
<g class="tick" transform="translate(129.32375,0)">
<line shape-rendering="crispEdges" stroke="#bbbbbb" stroke-width="1px" x1="0" x2="0" y1="0" y2="6"/>
<text dy=".35em" fill="#777" font-family="sans-serif" font-size="12px" text-anchor="middle" transform="rotate(0,0,16)" x="0" y="16">
1
</text>
</g>
<g class="tick" transform="translate(257.6211,0)">
<line shape-rendering="crispEdges" stroke="#bbbbbb" stroke-width="1px" x1="0" x2="0" y1="0" y2="6"/>
<text dy=".35em" fill="#777" font-family="sans-serif" font-size="12px" text-anchor="middle" transform="rotate(0,0,16)" x="0" y="16">
2
</text>
</g>
<g class="tick" transform="translate(385.91843,0)">
<line shape-rendering="crispEdges" stroke="#bbbbbb" stroke-width="1px" x1="0" x2="0" y1="0" y2="6"/>
<text dy=".35em" fill="#777" font-family="sans-serif" font-size="12px" text-anchor="middle" transform="rotate(0,0,16)" x="0" y="16">
3
</text>
</g>
<g class="tick" transform="translate(514.2158,0)">
<line shape-rendering="crispEdges" stroke="#bbbbbb" stroke-width="1px" x1="0" x2="0" y1="0" y2="6"/>
<text dy=".35em" fill="#777" font-family="sans-serif" font-size="12px" text-anchor="middle" transform="rotate(0,0,16)" x="0" y="16">
4
</text>
</g>
<g class="tick" transform="translate(642.5132,0)">
<line shape-rendering="crispEdges" stroke="#bbbbbb" stroke-width="1px" x1="0" x2="0" y1="0" y2="6"/>
<text dy=".35em" fill="#777" font-family="sans-serif" font-size="12px" text-anchor="middle" transform="rotate(0,0,16)" x="0" y="16">
5
</text>
</g>
<g class="tick" transform="translate(770.8105,0)">
<line shape-rendering="crispEdges" stroke="#bbbbbb" stroke-width="1px" x1="0" x2="0" y1="0" y2="6"/>
<text dy=".35em" fill="#777" font-family="sans-serif" font-size="12px" text-anchor="middle" transform="rotate(0,0,16)" x="0" y="16">
6
</text>
</g>
<g class="tick" transform="translate(899.1079,0)">
<line shape-rendering="crispEdges" stroke="#bbbbbb" stroke-width="1px" x1="0" x2="0" y1="0" y2="6"/>
<text dy=".35em" fill="#777" font-family="sans-serif" font-size="12px" text-anchor="middle" transform="rotate(0,0,16)" x="0" y="16">
7
</text>
</g>
<g class="tick" transform="translate(1027.4053,0)">
<line shape-rendering="crispEdges" stroke="#bbbbbb" stroke-width="1px" x1="0" x2="0" y1="0" y2="6"/>
<text dy=".35em" fill="#777" font-family="sans-serif" font-size="12px" text-anchor="middle" transform="rotate(0,0,16)" x="0" y="16">
8
</text>
</g>
<text fill="#777" font-family="sans-serif" font-size="14px" text-anchor="middle" transform="rotate(0)" x="535" y="42">
Time
</text>
</g>
<g class="y-axis" transform="translate(120,90)">
<line shape-rendering="crispEdges" stroke="#bbbbbb" stroke-width="1" x1="0" x2="0" y1="0" y2="660"/>
<g class="tick" transform="translate(0,22.54657)">
<line shape-rendering="crispEdges" stroke="#bbbbbb" stroke-width="1px" x1="0" x2="-6" y1="0" y2="0"/>
<text dy=".35em" fill="#777" font-family="sans-serif" font-size="12px" text-anchor="end" transform="rotate(0,-12,0)" x="-12" y="0">
barbar.nvim
</text>
</g>
<g class="tick" transform="translate(0,63.54036)">
<line shape-rendering="crispEdges" stroke="#bbbbbb" stroke-width="1px" x1="0" x2="-6" y1="0" y2="0"/>
<text dy=".35em" fill="#777" font-family="sans-serif" font-size="12px" text-anchor="end" transform="rotate(0,-12,0)" x="-12" y="0">
nvim-treesitter
</text>
</g>
<g class="tick" transform="translate(0,104.53415)">
<line shape-rendering="crispEdges" stroke="#bbbbbb" stroke-width="1px" x1="0" x2="-6" y1="0" y2="0"/>
<text dy=".35em" fill="#777" font-family="sans-serif" font-size="12px" text-anchor="end" transform="rotate(0,-12,0)" x="-12" y="0">
ale
</text>
</g>
<g class="tick" transform="translate(0,145.52794)">
<line shape-rendering="crispEdges" stroke="#bbbbbb" stroke-width="1px" x1="0" x2="-6" y1="0" y2="0"/>
<text dy=".35em" fill="#777" font-family="sans-serif" font-size="12px" text-anchor="end" transform="rotate(0,-12,0)" x="-12" y="0">
editorconfig-vim
</text>
</g>
<g class="tick" transform="translate(0,186.52173)">
<line shape-rendering="crispEdges" stroke="#bbbbbb" stroke-width="1px" x1="0" x2="-6" y1="0" y2="0"/>
<text dy=".35em" fill="#777" font-family="sans-serif" font-size="12px" text-anchor="end" transform="rotate(0,-12,0)" x="-12" y="0">
telescope.nvim
</text>
</g>
<g class="tick" transform="translate(0,227.51552)">
<line shape-rendering="crispEdges" stroke="#bbbbbb" stroke-width="1px" x1="0" x2="-6" y1="0" y2="0"/>
<text dy=".35em" fill="#777" font-family="sans-serif" font-size="12px" text-anchor="end" transform="rotate(0,-12,0)" x="-12" y="0">
vim-rooter
</text>
</g>
<g class="tick" transform="translate(0,268.5093)">
<line shape-rendering="crispEdges" stroke="#bbbbbb" stroke-width="1px" x1="0" x2="-6" y1="0" y2="0"/>
<text dy=".35em" fill="#777" font-family="sans-serif" font-size="12px" text-anchor="end" transform="rotate(0,-12,0)" x="-12" y="0">
open-browser.vim
</text>
</g>
<g class="tick" transform="translate(0,309.5031)">
<line shape-rendering="crispEdges" stroke="#bbbbbb" stroke-width="1px" x1="0" x2="-6" y1="0" y2="0"/>
<text dy=".35em" fill="#777" font-family="sans-serif" font-size="12px" text-anchor="end" transform="rotate(0,-12,0)" x="-12" y="0">
vim-commentary
</text>
</g>
<g class="tick" transform="translate(0,350.4969)">
<line shape-rendering="crispEdges" stroke="#bbbbbb" stroke-width="1px" x1="0" x2="-6" y1="0" y2="0"/>
<text dy=".35em" fill="#777" font-family="sans-serif" font-size="12px" text-anchor="end" transform="rotate(0,-12,0)" x="-12" y="0">
vim-easy-align
</text>
</g>
<g class="tick" transform="translate(0,391.49066)">
<line shape-rendering="crispEdges" stroke="#bbbbbb" stroke-width="1px" x1="0" x2="-6" y1="0" y2="0"/>
<text dy=".35em" fill="#777" font-family="sans-serif" font-size="12px" text-anchor="end" transform="rotate(0,-12,0)" x="-12" y="0">
vim-startify
</text>
</g>
<g class="tick" transform="translate(0,432.48447)">
<line shape-rendering="crispEdges" stroke="#bbbbbb" stroke-width="1px" x1="0" x2="-6" y1="0" y2="0"/>
<text dy=".35em" fill="#777" font-family="sans-serif" font-size="12px" text-anchor="end" transform="rotate(0,-12,0)" x="-12" y="0">
plantuml-syntax
</text>
</g>
<g class="tick" transform="translate(0,473.47827)">
<line shape-rendering="crispEdges" stroke="#bbbbbb" stroke-width="1px" x1="0" x2="-6" y1="0" y2="0"/>
<text dy=".35em" fill="#777" font-family="sans-serif" font-size="12px" text-anchor="end" transform="rotate(0,-12,0)" x="-12" y="0">
vim-toml
</text>
</g>
<g class="tick" transform="translate(0,514.47205)">
<line shape-rendering="crispEdges" stroke="#bbbbbb" stroke-width="1px" x1="0" x2="-6" y1="0" y2="0"/>
<text dy=".35em" fill="#777" font-family="sans-serif" font-size="12px" text-anchor="end" transform="rotate(0,-12,0)" x="-12" y="0">
vim-just
</text>
</g>
<g class="tick" transform="translate(0,555.4658)">
<line shape-rendering="crispEdges" stroke="#bbbbbb" stroke-width="1px" x1="0" x2="-6" y1="0" y2="0"/>
<text dy=".35em" fill="#777" font-family="sans-serif" font-size="12px" text-anchor="end" transform="rotate(0,-12,0)" x="-12" y="0">
nvim-web-devicons
</text>
</g>
<g class="tick" transform="translate(0,596.45966)">
<line shape-rendering="crispEdges" stroke="#bbbbbb" stroke-width="1px" x1="0" x2="-6" y1="0" y2="0"/>
<text dy=".35em" fill="#777" font-family="sans-serif" font-size="12px" text-anchor="end" transform="rotate(0,-12,0)" x="-12" y="0">
plenary.nvim
</text>
</g>
<g class="tick" transform="translate(0,637.4534)">
<line shape-rendering="crispEdges" stroke="#bbbbbb" stroke-width="1px" x1="0" x2="-6" y1="0" y2="0"/>
<text dy=".35em" fill="#777" font-family="sans-serif" font-size="12px" text-anchor="end" transform="rotate(0,-12,0)" x="-12" y="0">
plantuml-previewer.vim
</text>
</g>
</g>
<g class="g-view" transform="translate(120,90)">
<g>
<g class="bar" transform="translate(0,4.099365)">
<rect fill="#1f77b4" height="36.89441" shape-rendering="crispEdges" width="940.6762" x="1.0263789" y="0"/>
<text dy=".35em" fill="#333" font-family="sans-serif" font-size="14px" text-anchor="start" x="953.7026" y="18.447205">
7.332
</text>
</g>
<g class="bar" transform="translate(0,414.03726)">
<rect fill="#1f77b4" height="36.89441" shape-rendering="crispEdges" width="10.7769785" x="1.0263789" y="0"/>
<text dy=".35em" fill="#333" font-family="sans-serif" font-size="14px" text-anchor="start" x="23.803356" y="18.447205">
0.084
</text>
</g>
<g class="bar" transform="translate(0,537.0186)">
<rect fill="#1f77b4" height="36.89441" shape-rendering="crispEdges" width="7.8261385" x="1.0263789" y="0"/>
<text dy=".35em" fill="#333" font-family="sans-serif" font-size="14px" text-anchor="start" x="20.852516" y="18.447205">
0.061
</text>
</g>
<g class="bar" transform="translate(0,373.04346)">
<rect fill="#1f77b4" height="36.89441" shape-rendering="crispEdges" width="14.882494" x="1.0263789" y="0"/>
<text dy=".35em" fill="#333" font-family="sans-serif" font-size="14px" text-anchor="start" x="27.908873" y="18.447205">
0.116
</text>
</g>
<g class="bar" transform="translate(0,45.093155)">
<rect fill="#1f77b4" height="36.89441" shape-rendering="crispEdges" width="238.88968" x="1.0263789" y="0"/>
<text dy=".35em" fill="#333" font-family="sans-serif" font-size="14px" text-anchor="start" x="251.91606" y="18.447205">
1.862
</text>
</g>
<g class="bar" transform="translate(0,291.0559)">
<rect fill="#1f77b4" height="36.89441" shape-rendering="crispEdges" width="21.169065" x="1.0263789" y="0"/>
<text dy=".35em" fill="#333" font-family="sans-serif" font-size="14px" text-anchor="start" x="34.195442" y="18.447205">
0.165
</text>
</g>
<g class="bar" transform="translate(0,496.02484)">
<rect fill="#1f77b4" height="36.89441" shape-rendering="crispEdges" width="8.082734" x="1.0263789" y="0"/>
<text dy=".35em" fill="#333" font-family="sans-serif" font-size="14px" text-anchor="start" x="21.109112" y="18.447205">
0.063
</text>
</g>
<g class="bar" transform="translate(0,332.04968)">
<rect fill="#1f77b4" height="36.89441" shape-rendering="crispEdges" width="19.886091" x="1.0263789" y="0"/>
<text dy=".35em" fill="#333" font-family="sans-serif" font-size="14px" text-anchor="start" x="32.912468" y="18.447205">
0.155
</text>
</g>
<g class="bar" transform="translate(0,209.06831)">
<rect fill="#1f77b4" height="36.89441" shape-rendering="crispEdges" width="28.995203" x="1.0263789" y="0"/>
<text dy=".35em" fill="#333" font-family="sans-serif" font-size="14px" text-anchor="start" x="42.021584" y="18.447205">
0.226
</text>
</g>
<g class="bar" transform="translate(0,168.07452)">
<rect fill="#1f77b4" height="36.89441" shape-rendering="crispEdges" width="41.31175" x="1.0263789" y="0"/>
<text dy=".35em" fill="#333" font-family="sans-serif" font-size="14px" text-anchor="start" x="54.338127" y="18.447205">
0.322
</text>
</g>
<g class="bar" transform="translate(0,455.03107)">
<rect fill="#1f77b4" height="36.89441" shape-rendering="crispEdges" width="10.648682" x="1.0263789" y="0"/>
<text dy=".35em" fill="#333" font-family="sans-serif" font-size="14px" text-anchor="start" x="23.67506" y="18.447205">
0.083
</text>
</g>
<g class="bar" transform="translate(0,86.086945)">
<rect fill="#1f77b4" height="36.89441" shape-rendering="crispEdges" width="166.40169" x="1.0263789" y="0"/>
<text dy=".35em" fill="#333" font-family="sans-serif" font-size="14px" text-anchor="start" x="179.42807" y="18.447205">
1.297
</text>
</g>
<g class="bar" transform="translate(0,578.01245)">
<rect fill="#1f77b4" height="36.89441" shape-rendering="crispEdges" width="6.671463" x="1.0263789" y="0"/>
<text dy=".35em" fill="#333" font-family="sans-serif" font-size="14px" text-anchor="start" x="19.697842" y="18.447205">
0.052
</text>
</g>
<g class="bar" transform="translate(0,127.080734)">
<rect fill="#1f77b4" height="36.89441" shape-rendering="crispEdges" width="155.1115" x="1.0263789" y="0"/>
<text dy=".35em" fill="#333" font-family="sans-serif" font-size="14px" text-anchor="start" x="168.13788" y="18.447205">
1.209
</text>
</g>
<g class="bar" transform="translate(0,619.0062)">
<rect fill="#1f77b4" height="36.89441" shape-rendering="crispEdges" width="5.388489" x="1.0263789" y="0"/>
<text dy=".35em" fill="#333" font-family="sans-serif" font-size="14px" text-anchor="start" x="18.414867" y="18.447205">
0.042
</text>
</g>
<g class="bar" transform="translate(0,250.0621)">
<rect fill="#1f77b4" height="36.89441" shape-rendering="crispEdges" width="27.71223" x="1.0263789" y="0"/>
<text dy=".35em" fill="#333" font-family="sans-serif" font-size="14px" text-anchor="start" x="40.73861" y="18.447205">
0.216
</text>
</g>
</g>
</g>
</g>
</svg>