<svg height="800" viewBox="0 0 1200 800" width="1200" xmlns="http://www.w3.org/2000/svg">
<g class="g-chart">
<g class="g-title" transform="translate(600,25)">
<text dy=".35em" fill="#777" font-family="sans-serif" font-size="24px" text-anchor="middle" x="0" y="0">
Vim Plugin Start Times
</text>
</g>
<g class="x-axis" transform="translate(120,90)">
<line shape-rendering="crispEdges" stroke="#bbbbbb" stroke-width="1" x1="0" x2="1070" y1="0" y2="0"/>
<g class="tick" transform="translate(2.0776699,0)">
<line shape-rendering="crispEdges" stroke="#bbbbbb" stroke-width="1px" x1="0" x2="0" y1="0" y2="-6"/>
<text dy=".35em" fill="#777" font-family="sans-serif" font-size="12px" text-anchor="middle" transform="rotate(0,0,-16)" x="0" y="-16">
0
</text>
</g>
<g class="tick" transform="translate(111.42872,0)">
<line shape-rendering="crispEdges" stroke="#bbbbbb" stroke-width="1px" x1="0" x2="0" y1="0" y2="-6"/>
<text dy=".35em" fill="#777" font-family="sans-serif" font-size="12px" text-anchor="middle" transform="rotate(0,0,-16)" x="0" y="-16">
1
</text>
</g>
<g class="tick" transform="translate(220.77979,0)">
<line shape-rendering="crispEdges" stroke="#bbbbbb" stroke-width="1px" x1="0" x2="0" y1="0" y2="-6"/>
<text dy=".35em" fill="#777" font-family="sans-serif" font-size="12px" text-anchor="middle" transform="rotate(0,0,-16)" x="0" y="-16">
2
</text>
</g>
<g class="tick" transform="translate(330.13083,0)">
<line shape-rendering="crispEdges" stroke="#bbbbbb" stroke-width="1px" x1="0" x2="0" y1="0" y2="-6"/>
<text dy=".35em" fill="#777" font-family="sans-serif" font-size="12px" text-anchor="middle" transform="rotate(0,0,-16)" x="0" y="-16">
3
</text>
</g>
<g class="tick" transform="translate(439.48187,0)">
<line shape-rendering="crispEdges" stroke="#bbbbbb" stroke-width="1px" x1="0" x2="0" y1="0" y2="-6"/>
<text dy=".35em" fill="#777" font-family="sans-serif" font-size="12px" text-anchor="middle" transform="rotate(0,0,-16)" x="0" y="-16">
4
</text>
</g>
<g class="tick" transform="translate(548.8329,0)">
<line shape-rendering="crispEdges" stroke="#bbbbbb" stroke-width="1px" x1="0" x2="0" y1="0" y2="-6"/>
<text dy=".35em" fill="#777" font-family="sans-serif" font-size="12px" text-anchor="middle" transform="rotate(0,0,-16)" x="0" y="-16">
5
</text>
</g>
<g class="tick" transform="translate(658.18396,0)">
<line shape-rendering="crispEdges" stroke="#bbbbbb" stroke-width="1px" x1="0" x2="0" y1="0" y2="-6"/>
<text dy=".35em" fill="#777" font-family="sans-serif" font-size="12px" text-anchor="middle" transform="rotate(0,0,-16)" x="0" y="-16">
6
</text>
</g>
<g class="tick" transform="translate(767.53503,0)">
<line shape-rendering="crispEdges" stroke="#bbbbbb" stroke-width="1px" x1="0" x2="0" y1="0" y2="-6"/>
<text dy=".35em" fill="#777" font-family="sans-serif" font-size="12px" text-anchor="middle" transform="rotate(0,0,-16)" x="0" y="-16">
7
</text>
</g>
<g class="tick" transform="translate(876.88605,0)">
<line shape-rendering="crispEdges" stroke="#bbbbbb" stroke-width="1px" x1="0" x2="0" y1="0" y2="-6"/>
<text dy=".35em" fill="#777" font-family="sans-serif" font-size="12px" text-anchor="middle" transform="rotate(0,0,-16)" x="0" y="-16">
8
</text>
</g>
<g class="tick" transform="translate(986.2371,0)">
<line shape-rendering="crispEdges" stroke="#bbbbbb" stroke-width="1px" x1="0" x2="0" y1="0" y2="-6"/>
<text dy=".35em" fill="#777" font-family="sans-serif" font-size="12px" text-anchor="middle" transform="rotate(0,0,-16)" x="0" y="-16">
9
</text>
</g>
</g>
<g class="x-axis" transform="translate(120,750)">
<line shape-rendering="crispEdges" stroke="#bbbbbb" stroke-width="1" x1="0" x2="1070" y1="0" y2="0"/>
<g class="tick" transform="translate(2.0776699,0)">
<line shape-rendering="crispEdges" stroke="#bbbbbb" stroke-width="1px" x1="0" x2="0" y1="0" y2="6"/>
<text dy=".35em" fill="#777" font-family="sans-serif" font-size="12px" text-anchor="middle" transform="rotate(0,0,16)" x="0" y="16">
0
</text>
</g>
<g class="tick" transform="translate(111.42872,0)">
<line shape-rendering="crispEdges" stroke="#bbbbbb" stroke-width="1px" x1="0" x2="0" y1="0" y2="6"/>
<text dy=".35em" fill="#777" font-family="sans-serif" font-size="12px" text-anchor="middle" transform="rotate(0,0,16)" x="0" y="16">
1
</text>
</g>
<g class="tick" transform="translate(220.77979,0)">
<line shape-rendering="crispEdges" stroke="#bbbbbb" stroke-width="1px" x1="0" x2="0" y1="0" y2="6"/>
<text dy=".35em" fill="#777" font-family="sans-serif" font-size="12px" text-anchor="middle" transform="rotate(0,0,16)" x="0" y="16">
2
</text>
</g>
<g class="tick" transform="translate(330.13083,0)">
<line shape-rendering="crispEdges" stroke="#bbbbbb" stroke-width="1px" x1="0" x2="0" y1="0" y2="6"/>
<text dy=".35em" fill="#777" font-family="sans-serif" font-size="12px" text-anchor="middle" transform="rotate(0,0,16)" x="0" y="16">
3
</text>
</g>
<g class="tick" transform="translate(439.48187,0)">
<line shape-rendering="crispEdges" stroke="#bbbbbb" stroke-width="1px" x1="0" x2="0" y1="0" y2="6"/>
<text dy=".35em" fill="#777" font-family="sans-serif" font-size="12px" text-anchor="middle" transform="rotate(0,0,16)" x="0" y="16">
4
</text>
</g>
<g class="tick" transform="translate(548.8329,0)">
<line shape-rendering="crispEdges" stroke="#bbbbbb" stroke-width="1px" x1="0" x2="0" y1="0" y2="6"/>
<text dy=".35em" fill="#777" font-family="sans-serif" font-size="12px" text-anchor="middle" transform="rotate(0,0,16)" x="0" y="16">
5
</text>
</g>
<g class="tick" transform="translate(658.18396,0)">
<line shape-rendering="crispEdges" stroke="#bbbbbb" stroke-width="1px" x1="0" x2="0" y1="0" y2="6"/>
<text dy=".35em" fill="#777" font-family="sans-serif" font-size="12px" text-anchor="middle" transform="rotate(0,0,16)" x="0" y="16">
6
</text>
</g>
<g class="tick" transform="translate(767.53503,0)">
<line shape-rendering="crispEdges" stroke="#bbbbbb" stroke-width="1px" x1="0" x2="0" y1="0" y2="6"/>
<text dy=".35em" fill="#777" font-family="sans-serif" font-size="12px" text-anchor="middle" transform="rotate(0,0,16)" x="0" y="16">
7
</text>
</g>
<g class="tick" transform="translate(876.88605,0)">
<line shape-rendering="crispEdges" stroke="#bbbbbb" stroke-width="1px" x1="0" x2="0" y1="0" y2="6"/>
<text dy=".35em" fill="#777" font-family="sans-serif" font-size="12px" text-anchor="middle" transform="rotate(0,0,16)" x="0" y="16">
8
</text>
</g>
<g class="tick" transform="translate(986.2371,0)">
<line shape-rendering="crispEdges" stroke="#bbbbbb" stroke-width="1px" x1="0" x2="0" y1="0" y2="6"/>
<text dy=".35em" fill="#777" font-family="sans-serif" font-size="12px" text-anchor="middle" transform="rotate(0,0,16)" x="0" y="16">
9
</text>
</g>
<text fill="#777" font-family="sans-serif" font-size="14px" text-anchor="middle" transform="rotate(0)" x="535" y="42">
Time
</text>
</g>
<g class="y-axis" transform="translate(120,90)">
<line shape-rendering="crispEdges" stroke="#bbbbbb" stroke-width="1" x1="0" x2="0" y1="0" y2="660"/>
<g class="tick" transform="translate(0,12.059797)">
<line shape-rendering="crispEdges" stroke="#bbbbbb" stroke-width="1px" x1="0" x2="-6" y1="0" y2="0"/>
<text dy=".35em" fill="#777" font-family="sans-serif" font-size="12px" text-anchor="end" transform="rotate(0,-12,0)" x="-12" y="0">
vim-airline
</text>
</g>
<g class="tick" transform="translate(0,33.98671)">
<line shape-rendering="crispEdges" stroke="#bbbbbb" stroke-width="1px" x1="0" x2="-6" y1="0" y2="0"/>
<text dy=".35em" fill="#777" font-family="sans-serif" font-size="12px" text-anchor="end" transform="rotate(0,-12,0)" x="-12" y="0">
coc.nvim
</text>
</g>
<g class="tick" transform="translate(0,55.91362)">
<line shape-rendering="crispEdges" stroke="#bbbbbb" stroke-width="1px" x1="0" x2="-6" y1="0" y2="0"/>
<text dy=".35em" fill="#777" font-family="sans-serif" font-size="12px" text-anchor="end" transform="rotate(0,-12,0)" x="-12" y="0">
vimwiki
</text>
</g>
<g class="tick" transform="translate(0,77.84053)">
<line shape-rendering="crispEdges" stroke="#bbbbbb" stroke-width="1px" x1="0" x2="-6" y1="0" y2="0"/>
<text dy=".35em" fill="#777" font-family="sans-serif" font-size="12px" text-anchor="end" transform="rotate(0,-12,0)" x="-12" y="0">
vim-polyglot
</text>
</g>
<g class="tick" transform="translate(0,99.76744)">
<line shape-rendering="crispEdges" stroke="#bbbbbb" stroke-width="1px" x1="0" x2="-6" y1="0" y2="0"/>
<text dy=".35em" fill="#777" font-family="sans-serif" font-size="12px" text-anchor="end" transform="rotate(0,-12,0)" x="-12" y="0">
tabular
</text>
</g>
<g class="tick" transform="translate(0,121.69435)">
<line shape-rendering="crispEdges" stroke="#bbbbbb" stroke-width="1px" x1="0" x2="-6" y1="0" y2="0"/>
<text dy=".35em" fill="#777" font-family="sans-serif" font-size="12px" text-anchor="end" transform="rotate(0,-12,0)" x="-12" y="0">
vim-gitgutter
</text>
</g>
<g class="tick" transform="translate(0,143.62126)">
<line shape-rendering="crispEdges" stroke="#bbbbbb" stroke-width="1px" x1="0" x2="-6" y1="0" y2="0"/>
<text dy=".35em" fill="#777" font-family="sans-serif" font-size="12px" text-anchor="end" transform="rotate(0,-12,0)" x="-12" y="0">
emmet-vim
</text>
</g>
<g class="tick" transform="translate(0,165.54817)">
<line shape-rendering="crispEdges" stroke="#bbbbbb" stroke-width="1px" x1="0" x2="-6" y1="0" y2="0"/>
<text dy=".35em" fill="#777" font-family="sans-serif" font-size="12px" text-anchor="end" transform="rotate(0,-12,0)" x="-12" y="0">
vim-crypto
</text>
</g>
<g class="tick" transform="translate(0,187.47508)">
<line shape-rendering="crispEdges" stroke="#bbbbbb" stroke-width="1px" x1="0" x2="-6" y1="0" y2="0"/>
<text dy=".35em" fill="#777" font-family="sans-serif" font-size="12px" text-anchor="end" transform="rotate(0,-12,0)" x="-12" y="0">
ale
</text>
</g>
<g class="tick" transform="translate(0,209.402)">
<line shape-rendering="crispEdges" stroke="#bbbbbb" stroke-width="1px" x1="0" x2="-6" y1="0" y2="0"/>
<text dy=".35em" fill="#777" font-family="sans-serif" font-size="12px" text-anchor="end" transform="rotate(0,-12,0)" x="-12" y="0">
fzf.vim
</text>
</g>
<g class="tick" transform="translate(0,231.3289)">
<line shape-rendering="crispEdges" stroke="#bbbbbb" stroke-width="1px" x1="0" x2="-6" y1="0" y2="0"/>
<text dy=".35em" fill="#777" font-family="sans-serif" font-size="12px" text-anchor="end" transform="rotate(0,-12,0)" x="-12" y="0">
vim-airline-themes
</text>
</g>
<g class="tick" transform="translate(0,253.25581)">
<line shape-rendering="crispEdges" stroke="#bbbbbb" stroke-width="1px" x1="0" x2="-6" y1="0" y2="0"/>
<text dy=".35em" fill="#777" font-family="sans-serif" font-size="12px" text-anchor="end" transform="rotate(0,-12,0)" x="-12" y="0">
vim-eunuch
</text>
</g>
<g class="tick" transform="translate(0,275.1827)">
<line shape-rendering="crispEdges" stroke="#bbbbbb" stroke-width="1px" x1="0" x2="-6" y1="0" y2="0"/>
<text dy=".35em" fill="#777" font-family="sans-serif" font-size="12px" text-anchor="end" transform="rotate(0,-12,0)" x="-12" y="0">
fzf
</text>
</g>
<g class="tick" transform="translate(0,297.10962)">
<line shape-rendering="crispEdges" stroke="#bbbbbb" stroke-width="1px" x1="0" x2="-6" y1="0" y2="0"/>
<text dy=".35em" fill="#777" font-family="sans-serif" font-size="12px" text-anchor="end" transform="rotate(0,-12,0)" x="-12" y="0">
ultisnips
</text>
</g>
<g class="tick" transform="translate(0,319.03653)">
<line shape-rendering="crispEdges" stroke="#bbbbbb" stroke-width="1px" x1="0" x2="-6" y1="0" y2="0"/>
<text dy=".35em" fill="#777" font-family="sans-serif" font-size="12px" text-anchor="end" transform="rotate(0,-12,0)" x="-12" y="0">
vim-prettier
</text>
</g>
<g class="tick" transform="translate(0,340.96344)">
<line shape-rendering="crispEdges" stroke="#bbbbbb" stroke-width="1px" x1="0" x2="-6" y1="0" y2="0"/>
<text dy=".35em" fill="#777" font-family="sans-serif" font-size="12px" text-anchor="end" transform="rotate(0,-12,0)" x="-12" y="0">
vim-surround
</text>
</g>
<g class="tick" transform="translate(0,362.89035)">
<line shape-rendering="crispEdges" stroke="#bbbbbb" stroke-width="1px" x1="0" x2="-6" y1="0" y2="0"/>
<text dy=".35em" fill="#777" font-family="sans-serif" font-size="12px" text-anchor="end" transform="rotate(0,-12,0)" x="-12" y="0">
editorconfig-vim
</text>
</g>
<g class="tick" transform="translate(0,384.81726)">
<line shape-rendering="crispEdges" stroke="#bbbbbb" stroke-width="1px" x1="0" x2="-6" y1="0" y2="0"/>
<text dy=".35em" fill="#777" font-family="sans-serif" font-size="12px" text-anchor="end" transform="rotate(0,-12,0)" x="-12" y="0">
auto-pairs
</text>
</g>
<g class="tick" transform="translate(0,406.74417)">
<line shape-rendering="crispEdges" stroke="#bbbbbb" stroke-width="1px" x1="0" x2="-6" y1="0" y2="0"/>
<text dy=".35em" fill="#777" font-family="sans-serif" font-size="12px" text-anchor="end" transform="rotate(0,-12,0)" x="-12" y="0">
vim-commentary
</text>
</g>
<g class="tick" transform="translate(0,428.67108)">
<line shape-rendering="crispEdges" stroke="#bbbbbb" stroke-width="1px" x1="0" x2="-6" y1="0" y2="0"/>
<text dy=".35em" fill="#777" font-family="sans-serif" font-size="12px" text-anchor="end" transform="rotate(0,-12,0)" x="-12" y="0">
vim-clang-format
</text>
</g>
<g class="tick" transform="translate(0,450.598)">
<line shape-rendering="crispEdges" stroke="#bbbbbb" stroke-width="1px" x1="0" x2="-6" y1="0" y2="0"/>
<text dy=".35em" fill="#777" font-family="sans-serif" font-size="12px" text-anchor="end" transform="rotate(0,-12,0)" x="-12" y="0">
vim-operator-sort
</text>
</g>
<g class="tick" transform="translate(0,472.5249)">
<line shape-rendering="crispEdges" stroke="#bbbbbb" stroke-width="1px" x1="0" x2="-6" y1="0" y2="0"/>
<text dy=".35em" fill="#777" font-family="sans-serif" font-size="12px" text-anchor="end" transform="rotate(0,-12,0)" x="-12" y="0">
vim-rooter
</text>
</g>
<g class="tick" transform="translate(0,494.4518)">
<line shape-rendering="crispEdges" stroke="#bbbbbb" stroke-width="1px" x1="0" x2="-6" y1="0" y2="0"/>
<text dy=".35em" fill="#777" font-family="sans-serif" font-size="12px" text-anchor="end" transform="rotate(0,-12,0)" x="-12" y="0">
vim-highlightedyank
</text>
</g>
<g class="tick" transform="translate(0,516.3787)">
<line shape-rendering="crispEdges" stroke="#bbbbbb" stroke-width="1px" x1="0" x2="-6" y1="0" y2="0"/>
<text dy=".35em" fill="#777" font-family="sans-serif" font-size="12px" text-anchor="end" transform="rotate(0,-12,0)" x="-12" y="0">
vim-easy-align
</text>
</g>
<g class="tick" transform="translate(0,538.30566)">
<line shape-rendering="crispEdges" stroke="#bbbbbb" stroke-width="1px" x1="0" x2="-6" y1="0" y2="0"/>
<text dy=".35em" fill="#777" font-family="sans-serif" font-size="12px" text-anchor="end" transform="rotate(0,-12,0)" x="-12" y="0">
rust.vim
</text>
</g>
<g class="tick" transform="translate(0,560.23254)">
<line shape-rendering="crispEdges" stroke="#bbbbbb" stroke-width="1px" x1="0" x2="-6" y1="0" y2="0"/>
<text dy=".35em" fill="#777" font-family="sans-serif" font-size="12px" text-anchor="end" transform="rotate(0,-12,0)" x="-12" y="0">
vim-operator-user
</text>
</g>
<g class="tick" transform="translate(0,582.1595)">
<line shape-rendering="crispEdges" stroke="#bbbbbb" stroke-width="1px" x1="0" x2="-6" y1="0" y2="0"/>
<text dy=".35em" fill="#777" font-family="sans-serif" font-size="12px" text-anchor="end" transform="rotate(0,-12,0)" x="-12" y="0">
vim-startify
</text>
</g>
<g class="tick" transform="translate(0,604.0864)">
<line shape-rendering="crispEdges" stroke="#bbbbbb" stroke-width="1px" x1="0" x2="-6" y1="0" y2="0"/>
<text dy=".35em" fill="#777" font-family="sans-serif" font-size="12px" text-anchor="end" transform="rotate(0,-12,0)" x="-12" y="0">
cargo.vim
</text>
</g>
<g class="tick" transform="translate(0,626.0133)">
<line shape-rendering="crispEdges" stroke="#bbbbbb" stroke-width="1px" x1="0" x2="-6" y1="0" y2="0"/>
<text dy=".35em" fill="#777" font-family="sans-serif" font-size="12px" text-anchor="end" transform="rotate(0,-12,0)" x="-12" y="0">
rainbow
</text>
</g>
<g class="tick" transform="translate(0,647.9402)">
<line shape-rendering="crispEdges" stroke="#bbbbbb" stroke-width="1px" x1="0" x2="-6" y1="0" y2="0"/>
<text dy=".35em" fill="#777" font-family="sans-serif" font-size="12px" text-anchor="end" transform="rotate(0,-12,0)" x="-12" y="0">
goyo.vim
</text>
</g>
</g>
<g class="g-view" transform="translate(120,90)">
<g>
<g class="bar" transform="translate(0,199.53488)">
<rect fill="#1f77b4" height="19.734219" shape-rendering="crispEdges" width="91.41748" x="2.0776699" y="0"/>
<text dy=".35em" fill="#333" font-family="sans-serif" font-size="14px" text-anchor="start" x="105.49515" y="9.867109">
0.836
</text>
</g>
<g class="bar" transform="translate(0,133.75415)">
<rect fill="#1f77b4" height="19.734219" shape-rendering="crispEdges" width="211.26625" x="2.0776699" y="0"/>
<text dy=".35em" fill="#333" font-family="sans-serif" font-size="14px" text-anchor="start" x="225.34392" y="9.867109">
1.932
</text>
</g>
<g class="bar" transform="translate(0,67.97342)">
<rect fill="#1f77b4" height="19.734219" shape-rendering="crispEdges" width="406.02045" x="2.0776699" y="0"/>
<text dy=".35em" fill="#333" font-family="sans-serif" font-size="14px" text-anchor="start" x="420.0981" y="9.867109">
3.713
</text>
</g>
<g class="bar" transform="translate(0,396.87708)">
<rect fill="#1f77b4" height="19.734219" shape-rendering="crispEdges" width="29.852837" x="2.0776699" y="0"/>
<text dy=".35em" fill="#333" font-family="sans-serif" font-size="14px" text-anchor="start" x="43.930504" y="9.867109">
0.273
</text>
</g>
<g class="bar" transform="translate(0,2.192688)">
<rect fill="#1f77b4" height="19.734219" shape-rendering="crispEdges" width="958.5713" x="2.0776699" y="0"/>
<text dy=".35em" fill="#333" font-family="sans-serif" font-size="14px" text-anchor="start" x="972.649" y="9.867109">
8.766
</text>
</g>
<g class="bar" transform="translate(0,462.6578)">
<rect fill="#1f77b4" height="19.734219" shape-rendering="crispEdges" width="25.041391" x="2.0776699" y="0"/>
<text dy=".35em" fill="#333" font-family="sans-serif" font-size="14px" text-anchor="start" x="39.11906" y="9.867109">
0.229
</text>
</g>
<g class="bar" transform="translate(0,484.58472)">
<rect fill="#1f77b4" height="19.734219" shape-rendering="crispEdges" width="21.651506" x="2.0776699" y="0"/>
<text dy=".35em" fill="#333" font-family="sans-serif" font-size="14px" text-anchor="start" x="35.729176" y="9.867109">
0.198
</text>
</g>
<g class="bar" transform="translate(0,265.3156)">
<rect fill="#1f77b4" height="19.734219" shape-rendering="crispEdges" width="72.390396" x="2.0776699" y="0"/>
<text dy=".35em" fill="#333" font-family="sans-serif" font-size="14px" text-anchor="start" x="86.46806" y="9.867109">
0.662
</text>
</g>
<g class="bar" transform="translate(0,243.3887)">
<rect fill="#1f77b4" height="19.734219" shape-rendering="crispEdges" width="72.827805" x="2.0776699" y="0"/>
<text dy=".35em" fill="#333" font-family="sans-serif" font-size="14px" text-anchor="start" x="86.90547" y="9.867109">
0.666
</text>
</g>
<g class="bar" transform="translate(0,353.02325)">
<rect fill="#1f77b4" height="19.734219" shape-rendering="crispEdges" width="44.72458" x="2.0776699" y="0"/>
<text dy=".35em" fill="#333" font-family="sans-serif" font-size="14px" text-anchor="start" x="58.80225" y="9.867109">
0.409
</text>
</g>
<g class="bar" transform="translate(0,374.95016)">
<rect fill="#1f77b4" height="19.734219" shape-rendering="crispEdges" width="40.569237" x="2.0776699" y="0"/>
<text dy=".35em" fill="#333" font-family="sans-serif" font-size="14px" text-anchor="start" x="54.646908" y="9.867109">
0.371
</text>
</g>
<g class="bar" transform="translate(0,638.07306)">
<rect fill="#1f77b4" height="19.734219" shape-rendering="crispEdges" width="3.3898823" x="2.0776699" y="0"/>
<text dy=".35em" fill="#333" font-family="sans-serif" font-size="14px" text-anchor="start" x="17.467552" y="9.867109">
0.031
</text>
</g>
<g class="bar" transform="translate(0,528.43854)">
<rect fill="#1f77b4" height="19.734219" shape-rendering="crispEdges" width="14.106284" x="2.0776699" y="0"/>
<text dy=".35em" fill="#333" font-family="sans-serif" font-size="14px" text-anchor="start" x="28.183954" y="9.867109">
0.129
</text>
</g>
<g class="bar" transform="translate(0,331.09634)">
<rect fill="#1f77b4" height="19.734219" shape-rendering="crispEdges" width="46.58354" x="2.0776699" y="0"/>
<text dy=".35em" fill="#333" font-family="sans-serif" font-size="14px" text-anchor="start" x="60.661213" y="9.867109">
0.426
</text>
</g>
<g class="bar" transform="translate(0,572.29236)">
<rect fill="#1f77b4" height="19.734219" shape-rendering="crispEdges" width="11.809914" x="2.0776699" y="0"/>
<text dy=".35em" fill="#333" font-family="sans-serif" font-size="14px" text-anchor="start" x="25.887585" y="9.867109">
0.108
</text>
</g>
<g class="bar" transform="translate(0,287.24252)">
<rect fill="#1f77b4" height="19.734219" shape-rendering="crispEdges" width="52.37915" x="2.0776699" y="0"/>
<text dy=".35em" fill="#333" font-family="sans-serif" font-size="14px" text-anchor="start" x="66.45682" y="9.867109">
0.479
</text>
</g>
<g class="bar" transform="translate(0,506.51163)">
<rect fill="#1f77b4" height="19.734219" shape-rendering="crispEdges" width="15.6372" x="2.0776699" y="0"/>
<text dy=".35em" fill="#333" font-family="sans-serif" font-size="14px" text-anchor="start" x="29.71487" y="9.867109">
0.143
</text>
</g>
<g class="bar" transform="translate(0,177.60797)">
<rect fill="#1f77b4" height="19.734219" shape-rendering="crispEdges" width="146.85847" x="2.0776699" y="0"/>
<text dy=".35em" fill="#333" font-family="sans-serif" font-size="14px" text-anchor="start" x="160.93614" y="9.867109">
1.343
</text>
</g>
<g class="bar" transform="translate(0,46.04651)">
<rect fill="#1f77b4" height="19.734219" shape-rendering="crispEdges" width="522.26056" x="2.0776699" y="0"/>
<text dy=".35em" fill="#333" font-family="sans-serif" font-size="14px" text-anchor="start" x="536.33826" y="9.867109">
4.776
</text>
</g>
<g class="bar" transform="translate(0,418.804)">
<rect fill="#1f77b4" height="19.734219" shape-rendering="crispEdges" width="29.415432" x="2.0776699" y="0"/>
<text dy=".35em" fill="#333" font-family="sans-serif" font-size="14px" text-anchor="start" x="43.493103" y="9.867109">
0.269
</text>
</g>
<g class="bar" transform="translate(0,616.1462)">
<rect fill="#1f77b4" height="19.734219" shape-rendering="crispEdges" width="5.0301476" x="2.0776699" y="0"/>
<text dy=".35em" fill="#333" font-family="sans-serif" font-size="14px" text-anchor="start" x="19.107819" y="9.867109">
0.046
</text>
</g>
<g class="bar" transform="translate(0,594.2193)">
<rect fill="#1f77b4" height="19.734219" shape-rendering="crispEdges" width="11.153807" x="2.0776699" y="0"/>
<text dy=".35em" fill="#333" font-family="sans-serif" font-size="14px" text-anchor="start" x="25.231476" y="9.867109">
0.102
</text>
</g>
<g class="bar" transform="translate(0,221.46179)">
<rect fill="#1f77b4" height="19.734219" shape-rendering="crispEdges" width="79.17016" x="2.0776699" y="0"/>
<text dy=".35em" fill="#333" font-family="sans-serif" font-size="14px" text-anchor="start" x="93.247826" y="9.867109">
0.724
</text>
</g>
<g class="bar" transform="translate(0,155.68106)">
<rect fill="#1f77b4" height="19.734219" shape-rendering="crispEdges" width="175.61778" x="2.0776699" y="0"/>
<text dy=".35em" fill="#333" font-family="sans-serif" font-size="14px" text-anchor="start" x="189.69545" y="9.867109">
1.606
</text>
</g>
<g class="bar" transform="translate(0,111.82724)">
<rect fill="#1f77b4" height="19.734219" shape-rendering="crispEdges" width="223.18549" x="2.0776699" y="0"/>
<text dy=".35em" fill="#333" font-family="sans-serif" font-size="14px" text-anchor="start" x="237.26315" y="9.867109">
2.041
</text>
</g>
<g class="bar" transform="translate(0,440.7309)">
<rect fill="#1f77b4" height="19.734219" shape-rendering="crispEdges" width="25.806849" x="2.0776699" y="0"/>
<text dy=".35em" fill="#333" font-family="sans-serif" font-size="14px" text-anchor="start" x="39.884518" y="9.867109">
0.236
</text>
</g>
<g class="bar" transform="translate(0,550.3654)">
<rect fill="#1f77b4" height="19.734219" shape-rendering="crispEdges" width="12.46602" x="2.0776699" y="0"/>
<text dy=".35em" fill="#333" font-family="sans-serif" font-size="14px" text-anchor="start" x="26.54369" y="9.867109">
0.114
</text>
</g>
<g class="bar" transform="translate(0,309.16943)">
<rect fill="#1f77b4" height="19.734219" shape-rendering="crispEdges" width="48.11446" x="2.0776699" y="0"/>
<text dy=".35em" fill="#333" font-family="sans-serif" font-size="14px" text-anchor="start" x="62.19213" y="9.867109">
0.44
</text>
</g>
<g class="bar" transform="translate(0,89.90033)">
<rect fill="#1f77b4" height="19.734219" shape-rendering="crispEdges" width="256.53757" x="2.0776699" y="0"/>
<text dy=".35em" fill="#333" font-family="sans-serif" font-size="14px" text-anchor="start" x="270.61523" y="9.867109">
2.346
</text>
</g>
<g class="bar" transform="translate(0,24.119598)">
<rect fill="#1f77b4" height="19.734219" shape-rendering="crispEdges" width="652.279" x="2.0776699" y="0"/>
<text dy=".35em" fill="#333" font-family="sans-serif" font-size="14px" text-anchor="start" x="666.3567" y="9.867109">
5.965
</text>
</g>
</g>
</g>
</g>
</svg>